<svg xmlns="http://www.w3.org/2000/svg" viewBox="0 0 50 50">
  <path
    d="M4 28c0 11.579 9.421 21 21 21s21-9.421 21-21c0-9.853-6.831-18.121-16-20.373V3h3V1H17v2h3v4.627C10.831 9.879 4 18.147 4 28zm40 0c0 10.139-7.989 18.424-18 18.949V44h-2v2.949C14.323 46.442 6.558 38.677 6.051 29H9v-2H6.051c.475-9.052 7.298-16.43 16.101-17.763.31-.047.617-.109.93-.14.179-.018.364-.015.544-.028a19.387 19.387 0 0 1 2.748 0c.181.013.365.01.544.028.313.031.62.094.93.14C36.975 10.619 44 18.494 44 28zM22 7.214V3h6v4.214c-.186-.026-.373-.038-.56-.06A21.169 21.169 0 0 0 25 7c-.635 0-1.269.039-1.901.096-.181.016-.36.037-.539.058-.187.022-.374.033-.56.06zm18.293 2.494 1.414-1.415 3 3-1.414 1.415z" />
  <path d="M25 12h-1v17h17v-1c0-8.822-7.178-16-16-16zm1 15V14.035c6.924.491 12.474 6.041 12.965 12.965H26z" />
</svg>